<mxfile host="app.diagrams.net" modified="2024-04-10T09:27:07.882Z" agent="Mozilla/5.0 (Macintosh; Intel Mac OS X 10_15_7) AppleWebKit/537.36 (KHTML, like Gecko) Chrome/122.0.0.0 Safari/537.36 OPR/108.0.0.0" etag="Fwl5VIPII1XM7SeKKs0x" version="24.2.3" type="github">
  <diagram name="Page-1" id="le92VMufnWkmgHUhlkGX">
    <mxGraphModel dx="1394" dy="1014" grid="1" gridSize="10" guides="1" tooltips="1" connect="1" arrows="1" fold="1" page="1" pageScale="1" pageWidth="827" pageHeight="1169" math="0" shadow="0">
      <root>
        <mxCell id="0" />
        <mxCell id="1" parent="0" />
        <mxCell id="ItB8dmEGJ7zZSx4U0CKm-5" value="&lt;table cellpadding=&quot;4&quot; cellspacing=&quot;0&quot; border=&quot;0&quot; style=&quot;font-size:1em;width:100%;height:100%;&quot;&gt;&lt;tbody&gt;&lt;tr&gt;&lt;td&gt;WE&lt;/td&gt;&lt;/tr&gt;&lt;tr&gt;&lt;td&gt;1&lt;/td&gt;&lt;/tr&gt;&lt;/tbody&gt;&lt;/table&gt; " style="html=1;outlineConnect=0;align=center;dashed=0;aspect=fixed;shape=mxgraph.pid2inst.discInst;mounting=field;direction=south;fillColor=#dae8fc;strokeColor=#6c8ebf;" parent="1" vertex="1">
          <mxGeometry x="80" y="40" width="80" height="80" as="geometry" />
        </mxCell>
        <mxCell id="ItB8dmEGJ7zZSx4U0CKm-6" value="&lt;table cellpadding=&quot;4&quot; cellspacing=&quot;0&quot; border=&quot;0&quot; style=&quot;font-size:1em;width:100%;height:100%;&quot;&gt;&lt;tbody&gt;&lt;tr&gt;&lt;td&gt;WT&lt;/td&gt;&lt;/tr&gt;&lt;tr&gt;&lt;td&gt;1&lt;/td&gt;&lt;/tr&gt;&lt;/tbody&gt;&lt;/table&gt; " style="html=1;outlineConnect=0;align=center;dashed=0;aspect=fixed;shape=mxgraph.pid2inst.discInst;mounting=local;fillColor=#dae8fc;strokeColor=#6c8ebf;" parent="1" vertex="1">
          <mxGeometry x="80" y="240" width="80" height="80" as="geometry" />
        </mxCell>
        <mxCell id="ItB8dmEGJ7zZSx4U0CKm-12" value="&lt;table cellpadding=&quot;4&quot; cellspacing=&quot;0&quot; border=&quot;0&quot; style=&quot;font-size:1em;width:100%;height:100%;&quot;&gt;&lt;tbody&gt;&lt;tr&gt;&lt;td&gt;SE&lt;/td&gt;&lt;/tr&gt;&lt;tr&gt;&lt;td&gt;1&lt;/td&gt;&lt;/tr&gt;&lt;/tbody&gt;&lt;/table&gt; " style="html=1;outlineConnect=0;align=center;dashed=0;aspect=fixed;shape=mxgraph.pid2inst.discInst;mounting=field;direction=south;fillColor=#dae8fc;strokeColor=#6c8ebf;" parent="1" vertex="1">
          <mxGeometry x="320" y="40" width="80" height="80" as="geometry" />
        </mxCell>
        <mxCell id="ItB8dmEGJ7zZSx4U0CKm-28" value="&lt;table cellpadding=&quot;4&quot; cellspacing=&quot;0&quot; border=&quot;0&quot; style=&quot;font-size:1em;width:100%;height:100%;&quot;&gt;&lt;tbody&gt;&lt;tr&gt;&lt;td&gt;WRC&lt;/td&gt;&lt;/tr&gt;&lt;tr&gt;&lt;td&gt;1&lt;/td&gt;&lt;/tr&gt;&lt;/tbody&gt;&lt;/table&gt; " style="html=1;outlineConnect=0;align=center;dashed=0;aspect=fixed;shape=mxgraph.pid2inst.progLogCont;mounting=inaccessible;fillColor=#dae8fc;strokeColor=#6c8ebf;" parent="1" vertex="1">
          <mxGeometry x="80" y="440" width="80" height="80" as="geometry" />
        </mxCell>
        <mxCell id="ItB8dmEGJ7zZSx4U0CKm-29" value="&lt;table cellpadding=&quot;4&quot; cellspacing=&quot;0&quot; border=&quot;0&quot; style=&quot;font-size:1em;width:100%;height:100%;&quot;&gt;&lt;tbody&gt;&lt;tr&gt;&lt;td&gt;SRC&lt;/td&gt;&lt;/tr&gt;&lt;tr&gt;&lt;td&gt;1&lt;/td&gt;&lt;/tr&gt;&lt;/tbody&gt;&lt;/table&gt; " style="html=1;outlineConnect=0;align=center;dashed=0;aspect=fixed;shape=mxgraph.pid2inst.progLogCont;mounting=inaccessible;fillColor=#dae8fc;strokeColor=#6c8ebf;" parent="1" vertex="1">
          <mxGeometry x="320" y="440" width="80" height="80" as="geometry" />
        </mxCell>
        <mxCell id="ItB8dmEGJ7zZSx4U0CKm-30" value="&lt;table cellpadding=&quot;4&quot; cellspacing=&quot;0&quot; border=&quot;0&quot; style=&quot;font-size:1em;width:100%;height:100%;&quot;&gt;&lt;tbody&gt;&lt;tr&gt;&lt;td&gt;WI&lt;/td&gt;&lt;/tr&gt;&lt;tr&gt;&lt;td&gt;1&lt;/td&gt;&lt;/tr&gt;&lt;/tbody&gt;&lt;/table&gt; " style="html=1;outlineConnect=0;align=center;dashed=0;aspect=fixed;shape=mxgraph.pid2inst.progLogCont;mounting=field;fillColor=#dae8fc;strokeColor=#6c8ebf;" parent="1" vertex="1">
          <mxGeometry x="80" y="640" width="80" height="80" as="geometry" />
        </mxCell>
        <mxCell id="ItB8dmEGJ7zZSx4U0CKm-31" value="&lt;table cellpadding=&quot;4&quot; cellspacing=&quot;0&quot; border=&quot;0&quot; style=&quot;font-size:1em;width:100%;height:100%;&quot;&gt;&lt;tbody&gt;&lt;tr&gt;&lt;td&gt;SI&lt;/td&gt;&lt;/tr&gt;&lt;tr&gt;&lt;td&gt;1&lt;/td&gt;&lt;/tr&gt;&lt;/tbody&gt;&lt;/table&gt; " style="html=1;outlineConnect=0;align=center;dashed=0;aspect=fixed;shape=mxgraph.pid2inst.progLogCont;mounting=field;fillColor=#dae8fc;strokeColor=#6c8ebf;" parent="1" vertex="1">
          <mxGeometry x="320" y="640" width="80" height="80" as="geometry" />
        </mxCell>
        <mxCell id="DsREGYIqsoaqPNTumteo-11" value="" style="group" vertex="1" connectable="0" parent="1">
          <mxGeometry x="111.87" y="520" width="16.379999999999995" height="120" as="geometry" />
        </mxCell>
        <mxCell id="DsREGYIqsoaqPNTumteo-3" value="" style="endArrow=none;html=1;rounded=0;entryX=0.5;entryY=1;entryDx=0;entryDy=0;dashed=1;dashPattern=8 8;" edge="1" parent="DsREGYIqsoaqPNTumteo-11">
          <mxGeometry width="50" height="50" relative="1" as="geometry">
            <mxPoint x="7.700000000000003" y="120" as="sourcePoint" />
            <mxPoint x="7.700000000000003" as="targetPoint" />
          </mxGeometry>
        </mxCell>
        <mxCell id="DsREGYIqsoaqPNTumteo-4" value="" style="endArrow=none;html=1;rounded=0;" edge="1" parent="DsREGYIqsoaqPNTumteo-11">
          <mxGeometry width="50" height="50" relative="1" as="geometry">
            <mxPoint x="0.12999999999999545" y="40" as="sourcePoint" />
            <mxPoint x="16.379999999999995" y="49" as="targetPoint" />
          </mxGeometry>
        </mxCell>
        <mxCell id="DsREGYIqsoaqPNTumteo-10" value="" style="endArrow=none;html=1;rounded=0;" edge="1" parent="DsREGYIqsoaqPNTumteo-11">
          <mxGeometry width="50" height="50" relative="1" as="geometry">
            <mxPoint y="50" as="sourcePoint" />
            <mxPoint x="16.25" y="59" as="targetPoint" />
          </mxGeometry>
        </mxCell>
        <mxCell id="DsREGYIqsoaqPNTumteo-12" value="" style="group" vertex="1" connectable="0" parent="1">
          <mxGeometry x="111.81" y="320" width="16.379999999999995" height="120" as="geometry" />
        </mxCell>
        <mxCell id="DsREGYIqsoaqPNTumteo-13" value="" style="endArrow=none;html=1;rounded=0;entryX=0.5;entryY=1;entryDx=0;entryDy=0;dashed=1;dashPattern=8 8;" edge="1" parent="DsREGYIqsoaqPNTumteo-12">
          <mxGeometry width="50" height="50" relative="1" as="geometry">
            <mxPoint x="7.700000000000003" y="120" as="sourcePoint" />
            <mxPoint x="7.700000000000003" as="targetPoint" />
          </mxGeometry>
        </mxCell>
        <mxCell id="DsREGYIqsoaqPNTumteo-14" value="" style="endArrow=none;html=1;rounded=0;" edge="1" parent="DsREGYIqsoaqPNTumteo-12">
          <mxGeometry width="50" height="50" relative="1" as="geometry">
            <mxPoint x="0.12999999999999545" y="40" as="sourcePoint" />
            <mxPoint x="16.379999999999995" y="49" as="targetPoint" />
          </mxGeometry>
        </mxCell>
        <mxCell id="DsREGYIqsoaqPNTumteo-15" value="" style="endArrow=none;html=1;rounded=0;" edge="1" parent="DsREGYIqsoaqPNTumteo-12">
          <mxGeometry width="50" height="50" relative="1" as="geometry">
            <mxPoint y="50" as="sourcePoint" />
            <mxPoint x="16.25" y="59" as="targetPoint" />
          </mxGeometry>
        </mxCell>
        <mxCell id="DsREGYIqsoaqPNTumteo-16" value="" style="group" vertex="1" connectable="0" parent="1">
          <mxGeometry x="111.87" y="120" width="16.379999999999995" height="120" as="geometry" />
        </mxCell>
        <mxCell id="DsREGYIqsoaqPNTumteo-17" value="" style="endArrow=none;html=1;rounded=0;entryX=0.5;entryY=1;entryDx=0;entryDy=0;dashed=1;dashPattern=8 8;" edge="1" parent="DsREGYIqsoaqPNTumteo-16">
          <mxGeometry width="50" height="50" relative="1" as="geometry">
            <mxPoint x="7.700000000000003" y="120" as="sourcePoint" />
            <mxPoint x="7.700000000000003" as="targetPoint" />
          </mxGeometry>
        </mxCell>
        <mxCell id="DsREGYIqsoaqPNTumteo-18" value="" style="endArrow=none;html=1;rounded=0;" edge="1" parent="DsREGYIqsoaqPNTumteo-16">
          <mxGeometry width="50" height="50" relative="1" as="geometry">
            <mxPoint x="0.12999999999999545" y="40" as="sourcePoint" />
            <mxPoint x="16.379999999999995" y="49" as="targetPoint" />
          </mxGeometry>
        </mxCell>
        <mxCell id="DsREGYIqsoaqPNTumteo-19" value="" style="endArrow=none;html=1;rounded=0;" edge="1" parent="DsREGYIqsoaqPNTumteo-16">
          <mxGeometry width="50" height="50" relative="1" as="geometry">
            <mxPoint y="50" as="sourcePoint" />
            <mxPoint x="16.25" y="59" as="targetPoint" />
          </mxGeometry>
        </mxCell>
        <mxCell id="DsREGYIqsoaqPNTumteo-20" value="" style="group" vertex="1" connectable="0" parent="1">
          <mxGeometry x="350" y="520" width="16.379999999999995" height="120" as="geometry" />
        </mxCell>
        <mxCell id="DsREGYIqsoaqPNTumteo-21" value="" style="endArrow=none;html=1;rounded=0;entryX=0.5;entryY=1;entryDx=0;entryDy=0;dashed=1;dashPattern=8 8;" edge="1" parent="DsREGYIqsoaqPNTumteo-20">
          <mxGeometry width="50" height="50" relative="1" as="geometry">
            <mxPoint x="7.700000000000003" y="120" as="sourcePoint" />
            <mxPoint x="7.700000000000003" as="targetPoint" />
          </mxGeometry>
        </mxCell>
        <mxCell id="DsREGYIqsoaqPNTumteo-22" value="" style="endArrow=none;html=1;rounded=0;" edge="1" parent="DsREGYIqsoaqPNTumteo-20">
          <mxGeometry width="50" height="50" relative="1" as="geometry">
            <mxPoint x="0.12999999999999545" y="40" as="sourcePoint" />
            <mxPoint x="16.379999999999995" y="49" as="targetPoint" />
          </mxGeometry>
        </mxCell>
        <mxCell id="DsREGYIqsoaqPNTumteo-23" value="" style="endArrow=none;html=1;rounded=0;" edge="1" parent="DsREGYIqsoaqPNTumteo-20">
          <mxGeometry width="50" height="50" relative="1" as="geometry">
            <mxPoint y="50" as="sourcePoint" />
            <mxPoint x="16.25" y="59" as="targetPoint" />
          </mxGeometry>
        </mxCell>
        <mxCell id="DsREGYIqsoaqPNTumteo-29" value="" style="group" vertex="1" connectable="0" parent="1">
          <mxGeometry x="350" y="120" width="19.03000000000003" height="320" as="geometry" />
        </mxCell>
        <mxCell id="DsREGYIqsoaqPNTumteo-25" value="" style="endArrow=none;html=1;rounded=0;entryX=0.5;entryY=1;entryDx=0;entryDy=0;dashed=1;dashPattern=8 8;" edge="1" parent="DsREGYIqsoaqPNTumteo-29">
          <mxGeometry width="50" height="50" relative="1" as="geometry">
            <mxPoint x="9.509999999999991" y="320" as="sourcePoint" />
            <mxPoint x="9.509999999999991" as="targetPoint" />
          </mxGeometry>
        </mxCell>
        <mxCell id="DsREGYIqsoaqPNTumteo-27" value="" style="endArrow=none;html=1;rounded=0;" edge="1" parent="DsREGYIqsoaqPNTumteo-29">
          <mxGeometry width="50" height="50" relative="1" as="geometry">
            <mxPoint y="150" as="sourcePoint" />
            <mxPoint x="18.060000000000002" y="157.33333333333337" as="targetPoint" />
          </mxGeometry>
        </mxCell>
        <mxCell id="DsREGYIqsoaqPNTumteo-28" value="" style="endArrow=none;html=1;rounded=0;" edge="1" parent="DsREGYIqsoaqPNTumteo-29">
          <mxGeometry width="50" height="50" relative="1" as="geometry">
            <mxPoint x="0.9700000000000273" y="160" as="sourcePoint" />
            <mxPoint x="19.03000000000003" y="167.33333333333337" as="targetPoint" />
          </mxGeometry>
        </mxCell>
      </root>
    </mxGraphModel>
  </diagram>
</mxfile>
